<svg id="圖層_1" data-name="圖層 1" xmlns="http://www.w3.org/2000/svg" viewBox="0 0 244.52 328.67"><defs><style>.cls-1{fill:#c35025;}</style></defs><title>Logo</title><path class="cls-1" d="M98.84,97.2c.34.06-.17,1,.74.58,1.27-.62,2.77-.67,4-1.45l-.9-.58c.12-.11.17-.2.24-.22,4.79-1.64,9.79-2.33,14.73-3.27,1.83-.35,3.7-.12,5.56-.35,2.37-.29,4.68-1,7.11-.93,2.95.11,5.89-.08,8.85,0,3.61.08,6.85,1.76,10.35,1.83,3,.07,5.67,1.21,8.46,2,.37.1.4.33.13.85,1.11.62,2.12-.65,3.29-.17.51.21,1.26.28,1.4.74.37,1.17,1.19,1.14,2.18,1.41,3.56,1,7,2.29,10.55,3.44a14.69,14.69,0,0,0,1.59.38l.06.08-.07-.06a24.38,24.38,0,0,0-5.65-3.11c-4-1.66-8.13-3.08-12.24-4.46a37.64,37.64,0,0,0-4.75-.94,3.46,3.46,0,0,1-1.41-.38,6.41,6.41,0,0,0-3.85-1.42c-3.72-.19-7.38-.93-11.08-1.32-2.44-.25-4.82.81-7.21,0-.31-.1-1.05.34-.73-.57l.11-.1c1.08.55,1.75-.5,2.61-.73,3.17-.86,6.34-.59,9.51-.36a80.34,80.34,0,0,1,9.73,1.53,1.75,1.75,0,0,1,.33.06c6.85,2.65,14.28,3.51,20.91,6.81A17,17,0,0,0,179,98.58a1.81,1.81,0,0,1,.93.65c2.19,2.47,5.15,4,7.94,5.46a19,19,0,0,1,4.36,3.26,41.9,41.9,0,0,0,6,5.06,30.88,30.88,0,0,0,11.95,5.18c3.15.53,5.83,2.48,9,3.22,9.44,2.24,18.75,2.24,27.85-1.38,4.39-1.74,8.52-6.61,6.51-12.79a43.56,43.56,0,0,1-1.78-7.85A16.49,16.49,0,0,1,253.89,89c1.53-2.81,4-4.83,5.7-7.44l.36.24A21.42,21.42,0,0,1,258,85.17a28.42,28.42,0,0,0-4.32,7.53c-.74,1.78-.45,3.73-.41,5.94,1.53-1.24.84-3.3,2.41-4.16-.58,3.18,1,6.48,0,9.34-.8,2.47.36,4.06.75,6a3.5,3.5,0,0,1-.43,1.89c-.78,2.25-.55,5-3.12,6.41-.21.12-.26.55-.45,1,2.17-.09,2.32-2.29,3.74-3.1.6.89-1,1.8,0,2.67a2.25,2.25,0,0,0,.48-2.54c-.76-1.48.12-2.46.86-3.22,1.29-1.29,1.2-2.82,1-4.25-.3-2.32-.4-4.65-.62-7.16.75.57.62,1.49,1.34,2,.32-.68-.21-1.54.45-2.08.61,1,1.24,2,1.85,3.06.19.3.43.58.77.48.56-.15.32-.65.24-1-.59-2.29-.83-4.64-1.16-6.67.44,1.15.81-.23,1.38-.31l.46,1c.69,0,.3-.9.75-1,.64,2.61,1.41,5.2,1.91,7.83,1.22,6.45.15,12.54-3.91,17.74-1.78,2.28-3.72,4.64-6.52,5.95-.79.38-1.65.75-1.89,1.84-.08.37-.71.68-1.14.88-8.61,3.91-17.34,7.09-27,4.27a46.21,46.21,0,0,0-4.78-1.16c-1.24-.22-1.78.32-1.27,1.62,1.4,3.59,2.65,7.23,4,10.83a26.31,26.31,0,0,1,1.84,6.07,10.44,10.44,0,0,0,2.23,4.71c1.21,1.61,1.22,3.31,1.81,5,.33.93.62,2,1,3a13.7,13.7,0,0,1,.61,5.62,1.82,1.82,0,0,0,.34,1.08,4.18,4.18,0,0,1,.81,1.6c.29,2.4,2.1,3.09,4,3.88a81.1,81.1,0,0,1,17.53,9.76,3.93,3.93,0,0,1,1.7,3.74,2.24,2.24,0,0,0,1.51,2,16,16,0,0,1,4.61,2.51,34.58,34.58,0,0,1,5.47,5.55,36.58,36.58,0,0,1,3.83,4.76,58.5,58.5,0,0,1,2.77,5.76,1.43,1.43,0,0,1-.25,1.61c-.53-1.85-2-3-2.68-4.61-.55-1.35-1.39-1.75-3-1.45,1.26,2.17,2.55,4.25,3.69,6.4,1.84,3.48,3.87,6.91,4.87,10.76a14,14,0,0,1,.18,5.17c-.23,2,1,3.59,1.3,5.43a11.93,11.93,0,0,1,.36,3.06,23,23,0,0,0,.55,7.33,20.37,20.37,0,0,1,.37,7.19c-.27,2.28-.4,4.58-.59,6.87-.1-.15-.19-.3-.28-.45-.23.24-.14.44.07.63-.94,1.52-.73,3.33-1.22,5a30.88,30.88,0,0,1-9.19,14.14A31.52,31.52,0,0,1,260,284a4,4,0,0,1-2.27.67l2.83-1.8c.29-.2.51-.48.27-.82s-.5,0-.69.12c-2.65,2.11-6.14,2.69-8.79,4.83-.58.47-1.61.34-2.34.5-1.95.41-4.17.44-5.74,1.88-.53.5-.94.76-1.49.53a1.79,1.79,0,0,0-2.1.53c-1.52,1.51-3.39,2.64-4.84,4.15a10.2,10.2,0,0,0-2.87,9.34,48.27,48.27,0,0,1,.57,5.26v0c-.67.48-.19,1.46-.85,2a.61.61,0,0,0,.65.81c1,0,1.28.8,1.58,1.62,1.05,2.91,2,5.8,1.6,9-.09.64,0,1.31-.55,1.82a.68.68,0,0,0-.06.92c.85,1,.58,2.16.32,3.28a44.21,44.21,0,0,1-6.85,15.62,16.43,16.43,0,0,1-7.93,5.58c-2.59,1-5.09,2.13-7.63,3.21-2.07.89-4.31.87-6.47,1-5.2.29-10.45.5-15.48-1.3q-4.25-1.53-8.43-3.24c-2.75-1.12-5.14-2.79-7.73-4.13a5.32,5.32,0,0,0-3.82-.16c-.3.08-.56.36-.9.18-5.87-3.16-12.11-5.68-16.77-10.79a53,53,0,0,1-6.14-7.59c-.28-.45-.68-.26-1-.41-1.1-.49-1.17-.65-1.15-2,0-.49-.42-.78-.83-.94s-.42.23-.47.55c-.09.49-.35.42-.69.16-1.82-1.34-3.66-2.65-5.48-4-.33-.25-.77-.67-.45-1.05s.64.08.89.36.24.44.49.25a.51.51,0,0,0,.13-.73,8,8,0,0,0-2.71-3c-1.74-1.06-3.62-1.94-5-3.55-.52-.59-.55-1.56-1.65-1.75,1.85-1.7,3.65-.61,5,.07a54.35,54.35,0,0,1,6.81,4.43c.49.34,1.11.82,1.2,1.31.32,1.93,1.74,1.78,2.94,1.49,1.67-.4,2.79,1.24,4.36.9a2.43,2.43,0,0,0,1.3,2c.31.21.55.62.88.71,2.44.65,3.87,2.7,5.58,4.26s3.63,2.37,5.19,3.89a2.27,2.27,0,0,0,1.63.58c.7,0,1.53-.18,2,.78.21.46.87.32,1.36.33a7.23,7.23,0,0,1,4.58,1.19,1.57,1.57,0,0,0,.91.34,6.3,6.3,0,0,1,4.44,1.33c.68.54,2.19-.49,2.49,1.07s1.78,2.05,3,2.2c5.54.68,11,2,16.48,2.83a12.26,12.26,0,0,1,3.27,1.15,4.87,4.87,0,0,0,1.41.39c4.76.79,8.74-1.24,12.67-3.42.6-.32,1.25-.4,1.8-.75.39-.26.67-.85,1.24-.54s0,.74,0,1.11a.91.91,0,0,0,.2.6c.28.29.51,0,.68-.18.45-.54.88-1.11,1.32-1.67a.68.68,0,0,1,.12-.12c-2-1.85.69-2.37,1.12-3.44,1.08-2.63,1.72-5.37,2.68-8,.16-.45-.13-.67-.49-.9-1.39-.86-1.53-1.63-.77-3a3.45,3.45,0,0,0,.29-2.84,10,10,0,0,0-1.64-3.14,7.25,7.25,0,0,1-1.6-5.41c0-.33-.27-.68-.45-1.1.44,0,1.07-.33.9.45a1.11,1.11,0,0,0,.51,1.12c.74.69,1.92,1.32-.29,1.36-.16,0-.24.36-.16.35.74,0,.62,1.08.72.94.7-.95.93.07,1.35.25s.74,0,.77-.48.05-.88.08-1.33c-.13-.16.22-.16.16,0s.16.37.25.55c.06,0,.13,0,.16,0a4.59,4.59,0,0,0-.23-2.59c-.74-.06-.5-.44-.46-.9a4.05,4.05,0,0,0-.91-3.28c-1.25-1.5-.92-3.52-.1-5.26a3.88,3.88,0,0,0,.46-2.8,1.27,1.27,0,0,1,.08-.95c1.06-1.22.39-2.78.87-4.11l0,0c.91.3,1.35,0,1.33-1,0-2.11,1.36-3.51,2.54-5a4.8,4.8,0,0,0,.83-1.15c.36-.93.94-.91,1.88-.45-2.2,1.84-4.08,3.85-3.9,6.93l-.18.11h.1a.75.75,0,0,0,.06-.13c.44,0,.93,0,.94.65s.5.39.82.35.88-.15.63-.49c-.84-1.1.37-1.21.75-1.41.93-.49,1.47-.7.21-1.52-.43-.28,0-1.17.44-1.49.91-.6,1.9-1.1,3-.44.12.07.41.13.44.08.86-1.39,2.71-1.18,3.72-2.34.45-.52.13-.66-.2-1s-1.31-.8-.47-1.64,2-1,2.47-.25.9.46,1.43.8a2,2,0,0,0-1.55,1.73c.63-.69,1.6-.78,2-1.75.12-.28,1.13-.53,1.28.12a9.78,9.78,0,0,0,.47,1.74,9.62,9.62,0,0,0,2.75-.72,12.31,12.31,0,0,1,3.59-1.45c-1.17-1-1.55-1.76,0-2.37.51-.2-.83-.4,0-1.07.65-.52,1.6-.56,2-1.41-1-.15-1.47-.55-.39-1.38.73-.55,1.08-1.4,1.94-1.93s1.8.41,2.62-.11c.2.64.05,1.39.61,1.91-.48.45-.59,1.28-1.57,1.19s-1.79-.19-2.43.64c-.17.22-.68.31-.35.73.18.23.38.52.81.35a9.64,9.64,0,0,1,1.12-.24c.47-.11.48.36.66.57s.09.51-.2.46c-2-.29-.95,1.09-1.06,1.83l-.39.12s.09.06.11,0a1.51,1.51,0,0,0,.26-.18,7.25,7.25,0,0,0,2.76-1.69c.58-.49,1.93-1.12.74-2.32.51-.48.27-1.37,1.17-1.74.61-.26,1.53-.78.41-1.88-.84-.84,0-2.78,1.12-3.15.4-.13.55.26.72.53-.1.06-.36.05-.11.26l.13-.23c.65,0,1.21-.2,1.28-1s-.68-.39-1-.57-.2-.59-.05-.79a5.34,5.34,0,0,0,.8-3.44c0-1,.28-1.09,1.11-.72.49.22.71-.08.83-.48s-.12-.84-.17-1.24c-.09-.83,0-1.54.82-1.52a2,2,0,0,1,1.26,1.64A6.06,6.06,0,0,1,264.9,268c-.39.63-.45.87.39.74,1-.15.11.8.46.93a9.32,9.32,0,0,0,2.88-7.05c0-1.7.87-3.22.7-4.74s.23-3.24-.64-4.66c-.23-.37-.28-.5,0-.76s.56-.64.27-1c-1.07-1.34.3-2.65.06-4-.08-.49.06-1.43.05-2.11a68.9,68.9,0,0,0-2.39-14.83c-.67-2.72-2.32-5.08-2.86-7.88-1.57-8-6.32-14.15-12.06-19.51a67.8,67.8,0,0,0-11.25-8.94,35.45,35.45,0,0,0-4.9-2.93c-1.34-.53-2-.22-2.06,1.23-.06.88,0,1.76,0,2.63,0,1.4.64,2.89-.68,4.12a1.69,1.69,0,0,0-.29,1.24c.53,5.06-.83,9.8-2.16,14.62a58.39,58.39,0,0,1-4.37,11.44c-.81,1.56-.81,3.69-2.64,4.84-.48.31-.47,1.57-.88,2.36a68.41,68.41,0,0,1-8.5,12.82,83,83,0,0,1-8.47,8.72c-.61.53-1.08,1.24-1.68,1.79a82.57,82.57,0,0,1-16.78,12.18,22.42,22.42,0,0,1-7.32,2.77,3.55,3.55,0,0,0-2,1,3.35,3.35,0,0,1-2.15,1c-3.58.57-6.86,2.16-10.35,3.09a80,80,0,0,1-21.86,2.8c-.93,0-1.82.2-2.73.26-4.79.31-9.64.65-14.32-.52-2.61-.65-5.27-.77-7.87-1.42-2.22-.55-4.56-.65-6.76-1.26a99.94,99.94,0,0,1-15.2-5.23,71.32,71.32,0,0,1-9.51-5.2,55.41,55.41,0,0,0-5.19-2.84,30.93,30.93,0,0,1-7.77-6.16,31.46,31.46,0,0,0-3.69-3A41.74,41.74,0,0,1,64,248.67c-1.31-1.47-2.55-3.08-3.75-4.67-1.83-2.45-4.41-4.4-5.47-7.33-.63-1.76-2.22-2.5-3-4-.45.17,0,1-.57.77s-1.2-.72-.43-1.47l.34.13-.07-.38a4.79,4.79,0,0,0-1.65-2.19c-1.28-1-1.54-2.67-2.1-4a16.75,16.75,0,0,0-1.1-3.17c-1.5-2.29-2.21-4.94-3.56-7.27-.41-.71,0-1.29,0-1.91,0-2.38-1-4.46-1.6-6.67a42.08,42.08,0,0,1-1.41-11.05,4.9,4.9,0,0,1,.51-2.19l.63,2.54c.57-2.29-.54-4.1-.17-6.05-.49.31,0,1.05-.8,1.11a1.73,1.73,0,0,1-.07-1.66c.81-1.24.43-2.54.32-3.77a49.29,49.29,0,0,1-.16-8.66,67.32,67.32,0,0,1,1.72-9.31c.74-3.09,1.46-6.19,2.35-9.22.58-2,1.2-4.07,3.15-5.45-2.38,12.54-4.59,25.07-2.8,37.88a98.44,98.44,0,0,1,2.13-14.5,84.1,84.1,0,0,0,1.26,17.58,24.53,24.53,0,0,0,1.41,4.75c-1.61-7.35-2.2-14.69-.3-22.51a12.17,12.17,0,0,1,.62,4.06,162.81,162.81,0,0,0,3.31,20.47,47.84,47.84,0,0,0,4.83,12.89,6.35,6.35,0,0,1,.67,1.67C59,218.51,61.14,221.2,63,224a20.85,20.85,0,0,1,1.4,2.95c2.7,5.69,6.46,10.52,12,13.59a51.28,51.28,0,0,0,9.85,4.12c1.88.57,2.39-.13,3-2,.88-2.65-.23-5.35.53-8,.32-1.1.33-2.3,1-3.25.56-.73-.12-1.45.15-2.22a12.15,12.15,0,0,1,2.26-3.9c.24-.28.67-.32.27-.81-1.2-1.46-2.36-3-3.58-4.41a2.38,2.38,0,0,0-2-1c-1.48.25-2.13-.71-2.84-1.62s-2.21-1.46-2-3.08c.07-.43-.07-.88.38-1.17,2.25-1.4,4.58-2.59,7.32-2.59,1.51,0,1.44-1.57,2.2-2.32.42-.4-.47-1.12-1-1.47-3.39-2.18-6.58-4.69-10.43-6.17a11.62,11.62,0,0,1-4.35-3.12c-1-1.16-2.52-1.55-3.7-2.46a15.94,15.94,0,0,1-6.11-11.19c-.16-1.23,1.17-1.64,1.52-2.6.8.37,1.62-.13,2.55.44a14.68,14.68,0,0,1,5.89,6.49c.54,1.15,1.35,1.68,2.38,1.1,1.66-.93,3,0,4.36.31,2.06.48,4,1.26,6.06,1.87A11.33,11.33,0,0,0,101.8,188c1.9-2.12,3.43-4.58,5.79-6.32a12.18,12.18,0,0,1,5.6-2.19c1.27-.19,1.79-.48,1-1.86a12.92,12.92,0,0,0-6.49-6,3.81,3.81,0,0,1-2.52-3.13A.85.85,0,0,0,104,168c-.61.37-.89.12-.88-.4,0-2.48-1.19-4.66-1.58-7-.07-.44-.24-.9.2-1.2a1,1,0,0,1,1.09.08,6.46,6.46,0,0,0,6.85-.08c2.69-1.56,5.26-.59,7.7.37a19.71,19.71,0,0,0,5,1.38,3.38,3.38,0,0,0,3-1.4,31.3,31.3,0,0,1,13.51-9.62c4.6-1.7,9.35-3.14,14.41-2.16.4.07.93.28,1.15-.28s-.3-.78-.61-1.06a8,8,0,0,0-2.1-1.26c-2.64-1.17-4.93-2.7-6.26-5.47-.66-1.39-1.69-2.6-2.39-4-.39-.79.18-.78.35-1.42l.81,2.09c.33-1-.5-1.94.18-3a4.53,4.53,0,0,1,3.21-2.41c.82-.11,1.8.72,2.28,1.5s.7,1,1.44.35a3.76,3.76,0,0,1,2.6-.8,8.06,8.06,0,0,0,1.94-.29c3.62-.71,4.54-2.24,3.4-5.71-.15-.47-.43-.89-.6-1.35-.48-1.28.07-2.16,1.42-2.11a3,3,0,0,0,2.32-1c1.81-1.86,3.75-3.62,4.61-6.21.33-1,.28-1.54-.82-2a103.45,103.45,0,0,0-18.88-5.69c-7.4-1.61-14.82-1.35-22.28-.55-4.31.47-8.63.88-12.78,2.26A134.52,134.52,0,0,0,97.72,115,53.57,53.57,0,0,0,89,119.51c-.33.23-.7.58-1.25.29.19-1,1.18-1,1.78-1.43a57.15,57.15,0,0,1,10.74-5.61c2.71-1.11,5.38-2.32,8.12-3.34A64.66,64.66,0,0,1,119,106.58,94.76,94.76,0,0,1,136,105a3.61,3.61,0,0,0,.66,0c4.65-.91,9.1.07,13.57,1.22,1.47.38,3,.41,4.2,1.49a2.22,2.22,0,0,0,1.39.44c2.69,0,5.15,1,7.64,1.82,1.79.61,3.53,1.36,5.35,1.91a23.87,23.87,0,0,0-5.6-2.64,87.47,87.47,0,0,0-18.89-4.94,65.28,65.28,0,0,0-15.87-.3c-2.49.32-5,.67-7.51.91a48,48,0,0,0-8.62,2c-4.47,1.28-8.81,3-13.21,4.46-2.87,1-5.2,2.6-7.83,3.8-2.11,1-4.45,1.46-6.19,3.13-2,1.88-4.61,2.69-6.64,4.45s-3.74,3.71-5.64,5.53c-1.11,1.06-2.09,2.24-3.14,3.35-.25.27-.49.7-.93.33s-.28-.66-.1-1.05c.67-1.5,2.17-2.24,3.1-3.53a30.41,30.41,0,0,1,6.11-5.93c1.24-1,2.13-2.32,3.52-3.19,2.53-1.58,4.87-3.47,7.45-5,3.62-2.09,7.39-3.92,11.1-5.85.48-.25,1-.45,1.88-.84a3.85,3.85,0,0,0-2.53.52l-11.74,5.48a2.24,2.24,0,0,1-.65.07l0,0a44.83,44.83,0,0,1,8.66-4.91A5.1,5.1,0,0,0,98,106.48c-1.66.07-2.72,1.17-4.06,1.43,0-.21,0-.38,0-.4,2.45-1.27,4.81-2.81,7.54-3.41s5-2,7.55-2.76a136.82,136.82,0,0,1,19-3.68,89.39,89.39,0,0,1,16.51-.32c2.74.14,5.53,1.16,8.28,1.85,2.28.58,4.61,1.21,7,1.59a35.55,35.55,0,0,1,5.73,1.8c3,1,5.77,2.39,8.66,3.57.11,0,.3-.11.68-.25-.51-.41-.89-.91-1.38-1.05-2.1-.61-3.93-1.82-5.92-2.67-3.85-1.62-7.91-2.64-11.8-4.17a24.79,24.79,0,0,0-6.12-1.11c-3.9-.48-7.75-1.33-11.71-1.43a95,95,0,0,0-13.59.74,130.32,130.32,0,0,0-14.2,2.57,21.62,21.62,0,0,0-5.5,1.6c-2.42,1.28-5.29,1.5-7.67,2.78-4.37,2.35-9,4.19-13.23,6.8-3.51,2.16-6.53,5-10.21,6.89-.85.44-1.36,1.44-2.8,1.7,2.65-3,5.79-5,8.88-7.79-3.12,1.06-5.22,2.95-7.43,4.61s-4.83,3.11-6.94,5.13a5.72,5.72,0,0,1,2-3c1.76-1.55,3.71-2.81,5.26-4.67s4-2.54,5.9-3.86c3.27-2.21,6.51-4.46,9.77-6.69a6,6,0,0,1,3.46-1.15c-.59.52-1.47.58-1.85,1.39,1.52-.92,3.67-.66,4.61-2.63.14-.3.49-.39.82-.49,1.15-.31,2.32-.59,2.67-2,.09-.35.5-.4.84-.39A1.21,1.21,0,0,1,98.84,97.2ZM274.17,226.94l.08.07-.09,0c0-1.6-.79-2.62-2.52-3.57a24.51,24.51,0,0,1,2,7.57c0,.15.17.28.21.44.19.88.84.6,1.39.55.88-.08.44-.67.37-1.07a2.28,2.28,0,0,0-1.27-1.94C273.61,228.58,272.61,227.76,274.17,226.94ZM263.6,273.52c-1.52.14-2.57,1.33-3.08,3.58.64-.12.81-.73,1.21-1a.83.83,0,0,1,.92-.17c.41.24.14.59,0,.85-.63.95-.38,2.15-1,3.17-.5.81.3,2.09.8,1.77a15.19,15.19,0,0,0,2.43-2.25,11.22,11.22,0,0,0,2.79-5.7,13.1,13.1,0,0,1,1.56-2.85c.12-.22.23-.6.13-.75s-.61-.18-.91,0a2.2,2.2,0,0,0-1,1.25,15.4,15.4,0,0,1-1.94,2.85,1,1,0,0,1-1.25.46c-.68-.23-.64-.64-.62-1.14l.06,0ZM149.39,230.19c-.07-.06-.18-.19-.2-.18s-.11.24.05.33a4.09,4.09,0,0,1-.85,3.74,2.18,2.18,0,0,0-.56,1.67c.44,1.79,0,3.58.19,5.35.24,2.12,1.2,2.72,3.26,2.22.91-.21,1.82-.45,2.73-.65,3.15-.72,5.78-2.64,8.74-3.8,10.09-4,18.93-9.69,25.83-18.22a66.62,66.62,0,0,0,14.14-31.49c.11-.67.1-1.08-.76-1.28a2.8,2.8,0,0,0-2.73.31c.5.59-.15.77-.37.64-1.59-1-3.32-.21-5-.51l-.09-.08.1.06c-.42.85-2,.06-2.07,1.42,0,.19-.36.18-.58.07-.83-.39-1.47.18-2.18.41-1.29.43-2.4,1.31-3.78,1.5-1.55.21-3.12.34-4,2a1.35,1.35,0,0,1-1.28.61,5,5,0,0,0-3,.77c-.51.3-1.12.58-.9-.53a.4.4,0,0,0-.51-.46,2.4,2.4,0,0,0-.94.63c-.25.26,0,.54.22.67.56.32,1.19.62.58,1.35s-.5,1.56-1.86,1.44c-.91-.09-2.53.64-2.58,1.65s-.3.85-.94,1.08c-1,.37-2.18.89-2.3,2.25a.83.83,0,0,1-.68.79,9.66,9.66,0,0,0-5.34,4.43c-.26.4-.69.89-1.09.93a2.57,2.57,0,0,0-1.88,1.63,35.58,35.58,0,0,1-2.24,3.14c-.71,1-1.87,2-1.67,3.21.18,1,.35,1.36-.79,1.45-.39,0-.61.48-.66.87a5.73,5.73,0,0,1-1,2.23,6.24,6.24,0,0,0-1.19,4.49C151.82,228.7,151.65,229.14,149.39,230.19Zm29.44-43.77c1-.55.93-1.65,1.78-1.94,1.14-.39,2.27-.39,3.16-1.7.71-1.05,2.45-1.44,3.77-2a4.88,4.88,0,0,0,1-.46c3.49-2.52,7.67-2.9,11.71-3.53,2.5-.39,3.56-1.21,3.65-3.75.33-9.12-.77-18-4.42-26.45-1.77-4.08-3.43-8.2-6.45-11.62-1.67-1.89-3.43-3.69-5.15-5.54A83.18,83.18,0,0,0,174.7,118a2.25,2.25,0,0,0-3,.07c-.91.91-1.47,2.18-2.37,3.11-1.4,1.46-.78,4-2.92,5.06-1.41.69-1.42,2.26-1.76,3.54a7.91,7.91,0,0,1-4.16,5c-.87.48-1.81.81-2.71,1.22-.38.17-.93.22-.89.81a1.11,1.11,0,0,0,1,1c.93.07,1.44.75,2.1,1.19.29.19.69.44.53.92s-.61.27-1,.23-1,0-1.1.48.36.65.66.86c.64.43,1.29.84,2,1.21.46.26.9.62.86,1.12-.15,1.76.94,3.16,1.6,4.54,1.35,2.83,1.44,5.93,2.68,8.82-1.54-.54-2.92-1.24-3.9.74a5.7,5.7,0,0,0-3.53-2.56c-2.94-.91-5.6-2.4-8.92-2.17a25.12,25.12,0,0,0-17.69,9c-1.14,1.3-2,2.78-3.57,3.8-2.8,1.88-5.8,1.71-8.73,1.06-2.54-.57-5.22-1.26-6.73-3.89a3.35,3.35,0,0,0-4.33-.84c-1,.67,0,1.68.14,2.47a4.42,4.42,0,0,0,3.89,3.84A8.88,8.88,0,0,1,117,170.7a16.64,16.64,0,0,1,4.61,6.59,6.51,6.51,0,0,1,.7,4.29,1.89,1.89,0,0,0,.43,1.86c1.47,1.23.12,2.41.06,3.6,0,.71-.68.29-1,.39-1.17.31-2.47-.62-3.59.7a2.64,2.64,0,0,1-4.06.22c-1.22-1.16-2.22-.83-3.33-.06a22,22,0,0,0-4,3.89c-1.77,2.11-3.46,3.76-6.34,3.78-.36,0-.71.29-1.07.4a5.33,5.33,0,0,1-2.15.58c-3.13-.54-6.32-.22-9.45-.74-.28,0-.58-.08-.69.25a.69.69,0,0,0,.07.58,10.88,10.88,0,0,0,5.77,3.61c.64.15,1.37-.09,1.92.36a23.26,23.26,0,0,0,6.92,4c.38.13.41.37.58.65,1.2,2.06,2,2.32,4.33,1.64.26-.08.57,0,.82-.07,1.34-.4,2.55,1.09,3.5.71,2.12-.86,2.64,1.39,4.13,1.7,1.06.22.3,1.72.63,2.38.79,1.62-.25,2.44-.93,3.52s-1.92,2.39-2.7,2.51c-1.67.27-3.3,1.18-5.32.28-2.77-1.22-5.92-1.5-8.69-2.95A4.44,4.44,0,0,0,94,215c-.32.15-.84,0-.85.56a.84.84,0,0,0,.65.86c2.7.51,3.9,3,5.91,4.45s2.45,4.81,1.49,7.19a2.73,2.73,0,0,0-.22,2,5.37,5.37,0,0,1-.68,4.45c-2,3.24-2.1,6.85-2.2,10.47,0,.81.3,1.26,1.21,1.44a50.72,50.72,0,0,0,10.91,1.33,44,44,0,0,1,4.45.06c6.93.53,13.86.17,20.79.2,2.08,0,3.06-.89,3.14-2.65.07-1.29-.17-2.61-.22-3.92,0-1.15.68-2.5-.73-3.44-.32-.21-.06-.91.21-1.21a3.65,3.65,0,0,0,.66-3.69,3.53,3.53,0,0,1,.08-1.88c.22-1,1.28-1.66,1.4-2.46.48-3.17,2.26-5.87,3-8.94a13.09,13.09,0,0,1,2.06-4.36c.85-1.22,2-2.35,1.51-4.1,0-.07.08-.22.16-.28,2.19-1.72,2.72-4.56,4.55-6.61a38.66,38.66,0,0,1,5.64-5.38,58.07,58.07,0,0,0,4.94-4.3c.27-.26.22-.82.33-.77,1.59.55,1.71-.49,1.87-1.59a.47.47,0,0,1,.68-.28c.47.25.25.39-.09.64-.64.45,0,.56.28.65.51.17.8-.24,1.12-.53,1.38-1.22,2.75-2.45,4.14-3.66a1.7,1.7,0,0,1,1.63-.58c.68.21.14.89.4,1.37a10.69,10.69,0,0,0,3.24-2,4,4,0,0,1,3.79-1,15.34,15.34,0,0,0,2.43.12.77.77,0,0,0,.85-.61c.09-.33-.18-.46-.39-.64-.42-.35-.74-.14-1,.17C180.6,186.9,179.93,186.71,178.83,186.42Zm14.38.64c1.49-.16,2.63,0,3.89-.22a22.26,22.26,0,0,1,4.61,0c1.24.07,1.13-1,1.38-1.77a.92.92,0,0,0-1.08-1.28c-1.25.37-2.6.31-3.78.93-.54.28-1.16,1.54-1.71,0-.39.68-1,1.39-1.73,1.18C193.81,185.66,193.72,186.32,193.21,187.06Zm-14.39,6.15.65-.37c-.5-.74-.15-.84.48-.58.46.19.9.24,1.16-.18.11-.19-.07-.61-.21-.88a.91.91,0,0,0-1.27-.42,7,7,0,0,1-1.34.54c-.64.11-.72.37-.64,1S178.17,193.16,178.82,193.21Zm-98.1-83.3c1.93-.51,5.24-2.79,5.9-3.93A21.26,21.26,0,0,0,80.72,109.91Zm172.83,12.54c1.12-.31,1.65-1.18,2.38-1.81.28-.24.48-.43.06-.73s-.54-.66-.89-.21C254.47,120.5,253.43,121.08,253.55,122.45Zm-61.49,64.89c-.21-.46-.65-.34-1-.27-.53.11-1.3,0-1.35.78,0,.35.58.54.75.39C191,187.83,191.79,188.07,192.06,187.34ZM89.47,104.54c-1.1-.25-1.53.54-2,1.27A4,4,0,0,0,89.47,104.54ZM49.61,201.92c.57-1,.44-1.72-.3-2.31C49,200.4,49.75,201,49.61,201.92ZM205.18,353.65c.77.17,1.27.35,1.83,0A2.25,2.25,0,0,0,205.18,353.65ZM108.85,161.7a.78.78,0,0,0,1.05,0C109.55,161.6,109.29,161.42,108.85,161.7Zm-26.54-54v-.11s-.11,0-.14.08,0,.09,0,.13Zm-2.26,2.85a.58.58,0,0,0-.14,0s0,.06,0,.09.09,0,.13,0S80,110.54,80.05,110.5Zm7.75-6.1,0-.13s-.08.07-.08.11a.35.35,0,0,0,0,.13ZM243.42,285.28l.12,0-.12,0Z" transform="translate(-39.6 -25.5)"/><path class="cls-1" d="M218,68.07A22.27,22.27,0,0,1,213.74,83a16.6,16.6,0,0,1-17.32,6.49c-6.93-1.47-12.31-5.26-16.85-10.55a50.88,50.88,0,0,1-10-17.65c-2.38-7.4-3.27-14.91-1-22.53,3.5-11.48,14.38-16.3,25.29-11.2,6.62,3.09,11.63,8,15.7,13.95a50.09,50.09,0,0,1,8.38,22.3A36.1,36.1,0,0,1,218,68.07Z" transform="translate(-39.6 -25.5)"/><path class="cls-1" d="M273.18,44c.54,1.19,1.22,2.35.06,3.59-.2.22-.05.65.19.91s.48.51.13.65c-2.07.83-.25,2-.37,2.92.67,0,.18-1,.81-.84.41.1.4.61.49,1,.38,1.64.75,3.27,1.14,5,.77-.31.65-1,1-1.46l.65,1.06a5.49,5.49,0,0,1,1.78-3.7c.42-.4,1.07-.39,1,0-.28,1.48,1.14,2.26,1.25,3.53h0s-.06-.1,0-.14a9.62,9.62,0,0,0,.33-2.74c-.06-1.2.1-2.15-1-3.27s-1.53-3.11-2-4.79-1.77-2.48-3-3.33c-.77-.52-1.06-2.14-.3-3.83.62,2.21,2.89,2.78,3.74,4.37a6.1,6.1,0,0,1,.35-1,.77.77,0,0,1,.78-.5.79.79,0,0,1,.61.7,8.88,8.88,0,0,0,2.6,4.33c.21.23.51.57.47.82-.28,2,.65,4,0,6a4.6,4.6,0,0,0-.16,2c.1.72.58,1.77-.93,1.61a.36.36,0,0,0-.27.14c-1.2,2.6-3.86,4.8-2.29,8.17a2.26,2.26,0,0,1,0,1.29c-.07.68-.64,1.5.46,2,.34.14.09.61,0,.9a29.43,29.43,0,0,1-7.08,12.83c-.23.27-.46.91-1,.52s-.06-.83,0-1.3c.52-2.79,1.66-5.45,1.75-8.32.05-1.57-.44-1.39-2-1.33-1.1,0-2,.06-2.42.95a42.17,42.17,0,0,1-2.47,3.68c-1.11,1.73-2.38,3.35-3.7,5.18-.39-1.05.62-1.7,0-2.46h0l.33-.15-.33-.2h0c.09-.86-.46-.76-1-.65v0c.81-2.16,2.71-3.61,3.61-6.08.25,1.08-.37,1.46-.54,2s-.73.78-.05,1.24,1,0,1.27-.51c1.36-2.37,2.68-4.78,4.14-7.09.29-.47.09-2.14,1.58-1.14,0,0,.32-.18.33-.3.15-2.56,3.43-4.32,1.7-7.33-.41.12-.69,1.14-1.38.66-.52-.36-.18-1-.08-1.55.18-1-.61-1.57-.87-2.36A41.63,41.63,0,0,1,271.26,48a3.08,3.08,0,0,0-.23-1.26,1.09,1.09,0,0,1,0-1.48c.47-.6.82.08,1.24.18,1.61.36.77-.87.89-1.47Zm2.35,27.72a5.2,5.2,0,0,0,2.55-3.82c.06-.47-.49-1.43-.86-1.48-.66-.09-.8.75-.92,1.33C276,69,275.79,70.37,275.53,71.69Z" transform="translate(-39.6 -25.5)"/><path class="cls-1" d="M116.52,303.21a3.09,3.09,0,0,1-3-1.37c-1.07-1.55-2.57-2.84-3-4.78a3.81,3.81,0,0,1,.1-2.27c.4-1,1-1.4,2.2-.82a6.53,6.53,0,0,1,2.86,3c1.16,2.25,2.45,2.27,4.79-.09.62-.62,1.1-1.37,1.68-2,.89-1,2.86-1.45,3.57-.67a2.57,2.57,0,0,1,.19,3.42A11.74,11.74,0,0,1,116.52,303.21Z" transform="translate(-39.6 -25.5)"/><path class="cls-1" d="M256.65,94.8a6.82,6.82,0,0,1,.69-2.16c.12-.38,0-.89.77-.41.5.31.91-.63,1.19-1.17,1.05-2,2-4.13,4.31-5.11a1.18,1.18,0,0,0,.43-.5,11,11,0,0,1,4.72-4.53c.67.94.64,2.24.89,3.33.3,1.27-1.12,2.37-2.18,3.24a3.31,3.31,0,0,0-1.32,1.92c-.44,1.77-2.17,2.66-3.19,4.06-2.51-.31-2.08,2-2.84,3.21-.18-.23,0-.71-.38-.77s-.38.39-.45.67,0,.44-.1.65c-.2.66-.78.59-1.23.52-.85-.14,0-.52,0-.82-.17-1,.54-1.88.87-2.81.14-.38.45-1-.15-1-.32,0-1.16-.44-1.28.51-.06.46-.07,1-.68,1.21Z" transform="translate(-39.6 -25.5)"/><path class="cls-1" d="M129.53,88.54c-.6.07-1.4-.21-1.4.87,0,.6-.52.42-.87.45a78.45,78.45,0,0,0-8.14.83c-3.71.74-7.51,1-11.16,2a3.81,3.81,0,0,1,2.9-1.35c3.63-.51,7.2-1.43,10.88-1.56.89,0,1.43-1,2.38-.82.53.48,1,.22,1.62,0-.45-.42-.95-.22-1.41-.25a12.77,12.77,0,0,0,3.83-.42,1.13,1.13,0,0,1,1.34.23Z" transform="translate(-39.6 -25.5)"/><path class="cls-1" d="M248.27,280.32c-.78,1.33-2.63-.49-3.39,1.11.58.39,1.16-.28,1.72.26-1.15.41-2.21,1-3.44.6-.41-.13-.83-.32-.71-.92s.46-.54.87-.52a5.92,5.92,0,0,0,2.74-1A1.63,1.63,0,0,1,248.27,280.32Z" transform="translate(-39.6 -25.5)"/><path class="cls-1" d="M96.08,96.2c2.66-1.63,5.68-1.71,8.36-2.82A34,34,0,0,1,96.08,96.2Z" transform="translate(-39.6 -25.5)"/><path class="cls-1" d="M280,37.33c.8,1.39,2.12,2.43,2.09,4.09,0,.24.17.59-.23.66s-.64-.07-.63-.37c.07-1.42-1.16-2.4-1.23-3.76C280,37.74,280,37.54,280,37.33Z" transform="translate(-39.6 -25.5)"/><path class="cls-1" d="M64.79,138.36c-.22-1.42.75-2.4,1.26-3.55a.3.3,0,0,1,.54,0,.6.6,0,0,1-.09.76A11,11,0,0,0,64.79,138.36Z" transform="translate(-39.6 -25.5)"/><path class="cls-1" d="M80.35,116.82a3.74,3.74,0,0,1,2.27-1.64C82.14,116.5,81.11,116.45,80.35,116.82Z" transform="translate(-39.6 -25.5)"/><path class="cls-1" d="M225.3,292.65l-.89,1.57c-.39-1.29.43-2,.72-3.09.7.63.34,1.1.14,1.56Z" transform="translate(-39.6 -25.5)"/><path class="cls-1" d="M70.06,118.94a2.64,2.64,0,0,1-1.91,2,3.26,3.26,0,0,1,1.9-2Z" transform="translate(-39.6 -25.5)"/><path class="cls-1" d="M66.87,134c.48-.69.44-1.7,1.77-1.38C68,133.13,68.24,134.26,66.87,134Z" transform="translate(-39.6 -25.5)"/><path class="cls-1" d="M98.68,97a4.5,4.5,0,0,1,2.47-1.26,2,2,0,0,1-2.31,1.42A1.21,1.21,0,0,0,98.68,97Z" transform="translate(-39.6 -25.5)"/><path class="cls-1" d="M238,285.37a2.85,2.85,0,0,1-1.52.18C237,284.74,237,284.74,238,285.37Z" transform="translate(-39.6 -25.5)"/><path class="cls-1" d="M234.54,284.75c0-1,.83-1,1.83-1.43a2.52,2.52,0,0,1-1.83,1.43Z" transform="translate(-39.6 -25.5)"/><path class="cls-1" d="M256.7,94.85l-.14,1.32c-.7-1.06-.7-1.06.09-1.37Z" transform="translate(-39.6 -25.5)"/><path class="cls-1" d="M234.54,284.75c-.23.49-.25,1.34-1.17.69a1.12,1.12,0,0,1,1.17-.69Z" transform="translate(-39.6 -25.5)"/><path class="cls-1" d="M272.87,41.3c.72.82,0,1.8.31,2.67h0a4.9,4.9,0,0,1-.36-2.62Z" transform="translate(-39.6 -25.5)"/><path class="cls-1" d="M129.5,88.56c.37,0,.7.13.75.58l-.11.1c-.35,0-.73.14-1-.14a4.85,4.85,0,0,1,.41-.56Z" transform="translate(-39.6 -25.5)"/><path class="cls-1" d="M86.23,113c-.06.62-.51.66-1,.66h0a1.3,1.3,0,0,1,1-.66Z" transform="translate(-39.6 -25.5)"/><path class="cls-1" d="M263,78l-.33.33-.11-.17.43-.18Z" transform="translate(-39.6 -25.5)"/><path class="cls-1" d="M272.83,41.34a.51.51,0,0,1-.26-.64c0-.05.12-.09.19-.13l.11.73Z" transform="translate(-39.6 -25.5)"/><path class="cls-1" d="M224.63,326c.13-.12.23-.29.32-.29a.46.46,0,0,1,.35.24c.06.19,0,.46-.29.38C224.88,326.28,224.79,326.12,224.63,326Z" transform="translate(-39.6 -25.5)"/><path class="cls-1" d="M86.24,113c.13-.3.39-.34.68-.32l0,0a.71.71,0,0,1-.67.33Z" transform="translate(-39.6 -25.5)"/><path class="cls-1" d="M85.24,113.65l-.21.22-.09-.15.31-.06Z" transform="translate(-39.6 -25.5)"/><polygon class="cls-1" points="10.16 205.71 10.13 205.71 10.15 205.82 10.16 205.71"/><path class="cls-1" d="M232.56,309.19l.17.26c0-.09-.11-.18-.16-.28Z" transform="translate(-39.6 -25.5)"/><path class="cls-1" d="M263.94,79c0-.11,0-.22,0-.33h0V79Z" transform="translate(-39.6 -25.5)"/><path class="cls-1" d="M232.58,286.09l-.15.24c-.23-.22,0-.23.12-.27Z" transform="translate(-39.6 -25.5)"/><path class="cls-1" d="M70.05,118.94l.17-.15s0,.09,0,.11a.5.5,0,0,1-.13,0Z" transform="translate(-39.6 -25.5)"/><path class="cls-1" d="M232.55,286.06l.19-.14-.16.17Z" transform="translate(-39.6 -25.5)"/><path class="cls-1" d="M173.39,187.44c.44-.66.92-1,1.54-.88.23.05.38.63.16.87C174.59,188,174.05,187.66,173.39,187.44Z" transform="translate(-39.6 -25.5)"/><path class="cls-1" d="M187.35,193.87c-1.48.71-2.73,1.31-4,1.88-.15.07-.4,0-.58-.13s0-.31.07-.44A9.35,9.35,0,0,1,187.35,193.87Z" transform="translate(-39.6 -25.5)"/></svg>