<?xml version="1.0" standalone="no"?>
<!DOCTYPE svg PUBLIC "-//W3C//DTD SVG 20010904//EN"
 "http://www.w3.org/TR/2001/REC-SVG-20010904/DTD/svg10.dtd">
<svg version="1.0" xmlns="http://www.w3.org/2000/svg"
 width="512.000000pt" height="512.000000pt" viewBox="0 0 512.000000 512.000000"
 preserveAspectRatio="xMidYMid meet">
<metadata>
Created by potrace 1.14, written by Peter Selinger 2001-2017
</metadata>
<g transform="translate(0.000000,512.000000) scale(0.100000,-0.100000)"
fill="#000000" stroke="none">
<path d="M2379 5116 c-2 -2 -39 -6 -81 -10 -172 -14 -397 -65 -592 -133 -158
-55 -271 -108 -481 -227 -52 -29 -189 -126 -271 -192 -280 -224 -558 -574
-697 -875 -139 -301 -202 -520 -241 -836 -14 -110 -15 -482 -1 -573 67 -458
186 -781 410 -1120 108 -162 193 -267 324 -398 277 -279 606 -483 987 -615
153 -53 304 -88 534 -122 89 -14 453 -13 565 1 240 29 453 82 653 160 1138
448 1798 1625 1587 2829 -64 366 -208 718 -420 1020 -241 344 -579 636 -951
823 -262 131 -506 204 -859 257 -45 7 -460 17 -466 11z"/>
</g>
</svg>
