{
    "asset" : {
        "generator" : "Khronos glTF Blender I/O v1.6.16",
        "version" : "2.0"
    },
    "scene" : 0,
    "scenes" : [
        {
            "name" : "Scene",
            "nodes" : [
                0,
                1,
                2,
                3,
                4
            ]
        }
    ],
    "nodes" : [
        {
            "mesh" : 0,
            "name" : "Curve",
            "rotation" : [
                0.7071068286895752,
                0,
                0,
                0.7071068286895752
            ],
            "scale" : [
                744.0411987304688,
                744.0411987304688,
                744.0411987304688
            ],
            "translation" : [
                2.2192676067352295,
                -6.340444087982178e-06,
                -0.00011091199121437967
            ]
        },
        {
            "name" : "Sun",
            "rotation" : [
                0.6030834913253784,
                -0.38130220770835876,
                -0.12431451678276062,
                0.6895250678062439
            ],
            "translation" : [
                -0.007437944412231445,
                0.012975946068763733,
                110.3687744140625
            ]
        },
        {
            "mesh" : 1,
            "name" : "Cube",
            "scale" : [
                29.754562377929688,
                29.754562377929688,
                29.754562377929688
            ],
            "translation" : [
                0,
                0,
                102.28654479980469
            ]
        },
        {
            "mesh" : 2,
            "name" : "Cube.001",
            "translation" : [
                0.2948455810546875,
                0,
                110.5091781616211
            ]
        },
        {
            "name" : "Point",
            "translation" : [
                0.47835004329681396,
                -0.4687638580799103,
                108.3265151977539
            ]
        }
    ],
    "materials" : [
        {
            "doubleSided" : true,
            "name" : "SVGMat.003",
            "pbrMetallicRoughness" : {
                "baseColorFactor" : [
                    0.8307700753211975,
                    0.09305885434150696,
                    0.001214129850268364,
                    1
                ],
                "metallicFactor" : 0,
                "roughnessFactor" : 0.4000000059604645
            }
        },
        {
            "doubleSided" : true,
            "name" : "Material.001",
            "pbrMetallicRoughness" : {}
        }
    ],
    "meshes" : [
        {
            "name" : "Curve.105",
            "primitives" : [
                {
                    "attributes" : {
                        "POSITION" : 0,
                        "NORMAL" : 1,
                        "TEXCOORD_0" : 2
                    },
                    "indices" : 3,
                    "material" : 0
                }
            ]
        },
        {
            "name" : "Cube",
            "primitives" : [
                {
                    "attributes" : {
                        "POSITION" : 4,
                        "NORMAL" : 5,
                        "TEXCOORD_0" : 6
                    },
                    "indices" : 7,
                    "material" : 1
                }
            ]
        },
        {
            "name" : "Cube.001",
            "primitives" : [
                {
                    "attributes" : {
                        "POSITION" : 8,
                        "NORMAL" : 9,
                        "TEXCOORD_0" : 10
                    },
                    "indices" : 7
                }
            ]
        }
    ],
    "accessors" : [
        {
            "bufferView" : 0,
            "componentType" : 5126,
            "count" : 73018,
            "max" : [
                0.029217153787612915,
                0.0038525292184203863,
                0.04858849570155144
            ],
            "min" : [
                -0.03980841115117073,
                -0.0038526097778230906,
                -0.04415963217616081
            ],
            "type" : "VEC3"
        },
        {
            "bufferView" : 1,
            "componentType" : 5126,
            "count" : 73018,
            "type" : "VEC3"
        },
        {
            "bufferView" : 2,
            "componentType" : 5126,
            "count" : 73018,
            "type" : "VEC2"
        },
        {
            "bufferView" : 3,
            "componentType" : 5125,
            "count" : 143982,
            "type" : "SCALAR"
        },
        {
            "bufferView" : 4,
            "componentType" : 5126,
            "count" : 24,
            "max" : [
                1,
                1,
                1
            ],
            "min" : [
                -1,
                -1,
                -1
            ],
            "type" : "VEC3"
        },
        {
            "bufferView" : 5,
            "componentType" : 5126,
            "count" : 24,
            "type" : "VEC3"
        },
        {
            "bufferView" : 6,
            "componentType" : 5126,
            "count" : 24,
            "type" : "VEC2"
        },
        {
            "bufferView" : 7,
            "componentType" : 5123,
            "count" : 36,
            "type" : "SCALAR"
        },
        {
            "bufferView" : 8,
            "componentType" : 5126,
            "count" : 24,
            "max" : [
                1,
                1,
                1
            ],
            "min" : [
                -1,
                -1,
                -1
            ],
            "type" : "VEC3"
        },
        {
            "bufferView" : 9,
            "componentType" : 5126,
            "count" : 24,
            "type" : "VEC3"
        },
        {
            "bufferView" : 10,
            "componentType" : 5126,
            "count" : 24,
            "type" : "VEC2"
        }
    ],
    "bufferViews" : [
        {
            "buffer" : 0,
            "byteLength" : 876216,
            "byteOffset" : 0
        },
        {
            "buffer" : 0,
            "byteLength" : 876216,
            "byteOffset" : 876216
        },
        {
            "buffer" : 0,
            "byteLength" : 584144,
            "byteOffset" : 1752432
        },
        {
            "buffer" : 0,
            "byteLength" : 575928,
            "byteOffset" : 2336576
        },
        {
            "buffer" : 0,
            "byteLength" : 288,
            "byteOffset" : 2912504
        },
        {
            "buffer" : 0,
            "byteLength" : 288,
            "byteOffset" : 2912792
        },
        {
            "buffer" : 0,
            "byteLength" : 192,
            "byteOffset" : 2913080
        },
        {
            "buffer" : 0,
            "byteLength" : 72,
            "byteOffset" : 2913272
        },
        {
            "buffer" : 0,
            "byteLength" : 288,
            "byteOffset" : 2913344
        },
        {
            "buffer" : 0,
            "byteLength" : 288,
            "byteOffset" : 2913632
        },
        {
            "buffer" : 0,
            "byteLength" : 192,
            "byteOffset" : 2913920
        }
    ],
    "buffers" : [
        {
            "byteLength" : 2914112,
            "uri" : "data:application/octet-stream;base64,"
        }
    ]
}
