<svg id="圖層_1" data-name="圖層 1" xmlns="http://www.w3.org/2000/svg" viewBox="0 0 236.97 236.97"><defs><style>.cls-1{font-size:21px;fill:#df5610;font-family:GenJyuuGothicX-Monospace-Medium, Gen Jyuu Gothic X Monospace;font-weight:500;}</style></defs><title>load-circle</title><text class="cls-1" transform="translate(57.26 38.69) rotate(-34.56)">O</text><text class="cls-1" transform="translate(67.61 31.7) rotate(-27.44)">r</text><text class="cls-1" transform="translate(78.74 26.06) rotate(-20.29)">i</text><text class="cls-1" transform="translate(90.48 21.86) rotate(-13.12)">g</text><text class="cls-1" transform="translate(102.68 19.14) rotate(-5.98)">i</text><text class="cls-1" transform="translate(115.08 17.97) rotate(1.03)">n</text><text class="cls-1" transform="translate(127.46 17.89) rotate(11)">　</text><text class="cls-1" transform="translate(149.66 22.4) rotate(23.98)">起</text><text class="cls-1" transform="translate(170.33 31.81) rotate(36.9)">源</text><text class="cls-1" transform="matrix(0.65, 0.76, -0.76, 0.65, 188.35, 45.57)">劇</text><text class="cls-1" transform="translate(202.87 62.99) rotate(62.6)">團</text><text class="cls-1" transform="translate(213.14 83.21) rotate(75.57)">‧</text><text class="cls-1" transform="translate(218.21 105.42) rotate(85.59)">O</text><text class="cls-1" transform="translate(219.05 117.88) rotate(92.61)">r</text><text class="cls-1" transform="translate(218.36 130.34) rotate(99.7)">i</text><text class="cls-1" transform="translate(216.14 142.62) rotate(106.85)">g</text><text class="cls-1" transform="matrix(-0.41, 0.91, -0.91, -0.41, 212.41, 154.51)">i</text><text class="cls-1" transform="translate(207.22 165.85) rotate(121.14)">n</text><text class="cls-1" transform="translate(201.08 176.58) rotate(131.11)">　</text><text class="cls-1" transform="translate(186.03 193.54) rotate(143.94)">起</text><text class="cls-1" transform="translate(167.58 206.74) rotate(156.85)">源</text><text class="cls-1" transform="translate(146.64 215.48) rotate(169.85)">劇</text><text class="cls-1" transform="translate(124.28 219.28) rotate(-177.37)">團</text><text class="cls-1" transform="translate(101.63 218.06) rotate(-164.46)">‧</text><text class="cls-1" transform="translate(79.86 211.37) rotate(-154.39)">O</text><text class="cls-1" transform="matrix(-0.84, -0.54, 0.54, -0.84, 68.67, 205.86)">r</text><text class="cls-1" transform="translate(58.24 199.01) rotate(-140.18)">i</text><text class="cls-1" transform="matrix(-0.68, -0.73, 0.73, -0.68, 48.72, 190.92)">g</text><text class="cls-1" transform="translate(40.3 181.73) rotate(-126.03)">i</text><text class="cls-1" transform="translate(33.06 171.58) rotate(-118.92)">n</text><text class="cls-1" transform="translate(26.81 160.9) rotate(-108.86)">　</text><text class="cls-1" transform="translate(19.67 139.39) rotate(-95.91)">起</text><text class="cls-1" transform="translate(17.52 116.8) rotate(-83.15)">源</text><text class="cls-1" transform="matrix(0.34, -0.94, 0.94, 0.34, 20.41, 94.29)">劇</text><text class="cls-1" transform="matrix(0.54, -0.84, 0.84, 0.54, 28.27, 73.05)">團</text><text class="cls-1" transform="matrix(0.71, -0.7, 0.7, 0.71, 40.71, 54.07)">‧</text></svg>